<svg version="1.0" xmlns="http://www.w3.org/2000/svg" viewBox="0 0 1280.000000 661.000000"
 preserveAspectRatio="xMidYMid meet">
<g transform="translate(0.000000,661.000000) scale(0.100000,-0.100000)"
fill="#007595" stroke="none">
<path d="M6080 6570 c-91 -20 -334 -74 -540 -119 -206 -46 -620 -136 -920
-202 -939 -207 -1003 -221 -1075 -235 -38 -7 -128 -27 -200 -44 -71 -16 -521
-116 -1000 -220 -1816 -398 -2330 -511 -2333 -515 -2 -1 23 -12 55 -23 181
-62 2248 -793 2251 -796 2 -2 -4 -28 -14 -58 -22 -70 -29 -344 -16 -703 11
-346 12 -343 -43 -378 -75 -48 -125 -142 -127 -240 -1 -93 31 -170 99 -234
l44 -42 45 -258 c24 -142 44 -259 44 -261 0 -2 5 0 11 4 9 5 10 -57 6 -247 -7
-304 -19 -447 -97 -1099 -27 -235 -42 -393 -55 -600 -6 -93 -5 -96 23 -141 35
-54 93 -97 177 -129 86 -34 266 -35 379 -2 161 46 292 136 355 242 24 41 26
54 25 145 -3 181 -74 504 -279 1260 -129 478 -165 617 -159 627 3 5 -14 121
-37 258 l-42 249 37 74 c33 65 38 82 38 145 0 119 -68 230 -169 276 l-38 17
-1 127 c-1 70 -7 255 -14 412 -12 279 -6 448 18 472 6 6 1138 -383 1147 -395
7 -8 145 -1314 145 -1368 -1 -362 245 -805 528 -952 37 -19 130 -55 207 -80
508 -166 1023 -276 1570 -334 214 -23 966 -26 1160 -5 674 72 1237 198 1670
372 129 51 327 156 398 210 222 168 269 252 302 534 22 185 21 216 -29 681
-25 231 -62 572 -82 758 -20 186 -35 339 -33 341 2 2 657 252 1454 556 798
304 1536 586 1640 626 105 40 183 75 175 77 -8 3 -76 17 -150 31 -74 13 -382
73 -685 131 -302 58 -734 142 -960 185 -225 43 -657 127 -960 185 -302 59
-689 133 -860 166 -480 93 -1345 259 -1942 375 -863 166 -957 184 -968 183 -5
-1 -84 -18 -175 -39z"/>
</g>
</svg>
